HIERARCHY
ROOT joint_Root
{
	OFFSET 0.0 0.0 0.0
	CHANNELS 6 Xposition Yposition Zposition Zrotation Xrotation Yrotation 
	JOINT Hips
	{
		OFFSET -0.726466 93.3139 -2.00062
		CHANNELS 6 Xposition Yposition Zposition Zrotation Xrotation Yrotation 
		JOINT Spine
		{
			OFFSET 15.7357 0.0 0.0
			CHANNELS 6 Xposition Yposition Zposition Zrotation Xrotation Yrotation 
			JOINT Chest
			{
				OFFSET 8.98455 -0.406207 0.0
				CHANNELS 6 Xposition Yposition Zposition Zrotation Xrotation Yrotation 
				JOINT Neck
				{
					OFFSET 16.3773 0.0 0.0
					CHANNELS 6 Xposition Yposition Zposition Zrotation Xrotation Yrotation 
					JOINT Head
					{
						OFFSET 6.45672 0.0 0.0
						CHANNELS 6 Xposition Yposition Zposition Zrotation Xrotation Yrotation 
						End Site
						{
							OFFSET 0.0 0.0 0.0
						}
					}
				}
				JOINT Shoulder_L
				{
					OFFSET 12.9942 -0.242716 4.98039
					CHANNELS 6 Xposition Yposition Zposition Zrotation Xrotation Yrotation 
					JOINT UpperArm_L
					{
						OFFSET 5.34809 0.0 0.0
						CHANNELS 6 Xposition Yposition Zposition Zrotation Xrotation Yrotation 
						JOINT LowerArm_L
						{
							OFFSET 24.3286 1.87007e-05 0.0
							CHANNELS 6 Xposition Yposition Zposition Zrotation Xrotation Yrotation 
							JOINT Hand_L
							{
								OFFSET 22.2916 0.0 0.0
								CHANNELS 6 Xposition Yposition Zposition Zrotation Xrotation Yrotation 
								End Site
								{
									OFFSET 0.0 0.0 0.0
								}
							}
						}
					}
				}
				JOINT Shoulder_R
				{
					OFFSET 12.9945 -0.242716 -4.98039
					CHANNELS 6 Xposition Yposition Zposition Zrotation Xrotation Yrotation 
					JOINT UpperArm_R
					{
						OFFSET -5.34813 0.0 0.0
						CHANNELS 6 Xposition Yposition Zposition Zrotation Xrotation Yrotation 
						JOINT LowerArm_R
						{
							OFFSET -24.3289 0.000322201 0.0
							CHANNELS 6 Xposition Yposition Zposition Zrotation Xrotation Yrotation 
							JOINT Hand_R
							{
								OFFSET -22.2915 -0.000108084 0.0
								CHANNELS 6 Xposition Yposition Zposition Zrotation Xrotation Yrotation 
								End Site
								{
									OFFSET 0.0 0.0 0.0
								}
							}
						}
					}
				}
			}
		}
		JOINT UpperLeg_L
		{
			OFFSET -2.19248 -6.46944 0.0
			CHANNELS 6 Xposition Yposition Zposition Zrotation Xrotation Yrotation 
			JOINT LowerLeg_L
			{
				OFFSET 39.0811 0.0 -1.23785e-05
				CHANNELS 6 Xposition Yposition Zposition Zrotation Xrotation Yrotation 
				JOINT Foot_L
				{
					OFFSET 40.9854 0.0 -1.26872e-05
					CHANNELS 6 Xposition Yposition Zposition Zrotation Xrotation Yrotation 
					JOINT Toes_L
					{
						OFFSET 11.7543 0.0 0.0
						CHANNELS 6 Xposition Yposition Zposition Zrotation Xrotation Yrotation 
						End Site
						{
							OFFSET 0.0 0.0 0.0
						}
					}
				}
			}
		}
		JOINT UpperLeg_R
		{
			OFFSET -2.19251 6.46944 0.0
			CHANNELS 6 Xposition Yposition Zposition Zrotation Xrotation Yrotation 
			JOINT LowerLeg_R
			{
				OFFSET -39.0811 -0.00228153 -0.0401928
				CHANNELS 6 Xposition Yposition Zposition Zrotation Xrotation Yrotation 
				JOINT Foot_R
				{
					OFFSET -40.9854 0.0 0.0
					CHANNELS 6 Xposition Yposition Zposition Zrotation Xrotation Yrotation 
					JOINT Toes_R
					{
						OFFSET -11.7543 0.0 0.0
						CHANNELS 6 Xposition Yposition Zposition Zrotation Xrotation Yrotation 
						End Site
						{
							OFFSET 0.0 0.0 0.0
						}
					}
				}
			}
		}
	}
}
MOTION
Frames:	4
Frame Time:	0.0333333
0.000000 0.000000 0.000000 0.000000 0.000000 -0.000000 3.940600 83.079300 -78.516800 85.167000 -3.267280 0.123226 15.735700 0.000005 -0.000001 80.839200 81.252300 -77.672800 8.984550 -0.406207 -0.000000 9.597620 -2.718400 6.557330 16.377300 -0.000001 -0.000001 -2.091960 -0.166518 -1.266420 6.456720 -0.000001 -0.000000 -1.131010 2.613120 -3.595330 12.994200 -0.242716 4.980390 -89.597300 -1.142520 -70.582900 5.348090 -0.000007 -0.000001 -72.074200 31.028800 -1.161500 24.328600 0.000019 0.000005 3.191310 0.869872 -74.784400 22.291600 -0.000001 0.000005 2.090870 5.668570 -17.164000 12.994500 -0.242716 -4.980390 87.327800 6.903240 -68.779600 -5.348130 -0.000001 -0.000004 -53.171200 33.389700 -23.130900 -24.328900 0.000322 -0.000009 -1.130940 0.074821 -93.805100 -22.291500 -0.000108 -0.000004 12.025900 5.594340 -11.016700 -2.192480 -6.469440 -0.000000 -175.235000 -7.029000 -19.861700 39.081100 -0.000007 -0.000012 -0.606289 -0.219114 109.870000 40.985400 -0.000006 -0.000013 12.991900 -9.158880 -43.093300 11.754300 -0.000000 0.000003 -0.007849 -0.086803 -20.111300 -2.192510 6.469440 -0.000001 -166.887000 6.236240 157.557000 -39.081100 -0.002282 -0.040193 0.249500 -0.159757 57.029800 -40.985400 0.000008 0.000006 17.556400 -2.457650 -82.040700 -11.754300 -0.000006 -0.000006 -0.007237 -0.081685 -19.898700
0.000000 0.000000 0.000000 0.000000 0.000000 -0.000000 4.196410 83.450200 -69.625300 88.146000 -4.254210 -2.000050 15.735700 0.000005 -0.000001 88.894200 82.295600 -86.733800 8.984550 -0.406207 -0.000000 7.649240 -0.298331 4.336200 16.377300 -0.000001 -0.000001 -1.595890 -0.647812 -0.763513 6.456720 -0.000001 -0.000000 -0.425272 0.716873 -3.861780 12.994200 -0.242716 4.980390 -89.411600 -1.580600 -69.584100 5.348090 -0.000007 -0.000001 -71.210800 32.910200 4.438450 24.328600 0.000019 0.000005 2.302960 0.547358 -76.689800 22.291600 -0.000001 0.000005 0.513108 5.664250 -16.562000 12.994500 -0.242716 -4.980390 88.043700 5.255150 -69.548700 -5.348130 -0.000001 -0.000004 -53.431100 32.039500 -31.839900 -24.328900 0.000322 -0.000009 0.781111 -0.097684 -97.241500 -22.291500 -0.000108 -0.000004 11.062600 5.601400 -11.426700 -2.192480 -6.469440 -0.000000 179.666000 -4.891150 -31.332100 39.081100 -0.000007 -0.000012 -0.656405 -0.250576 110.894000 40.985400 -0.000006 -0.000013 13.792300 -9.246050 -48.066400 11.754300 -0.000000 0.000003 -0.007719 -0.085734 -20.067700 -2.192510 6.469440 -0.000001 -171.512000 7.150540 163.828000 -39.081100 -0.002282 -0.040193 0.231711 -0.166710 53.883700 -40.985400 0.000008 0.000006 17.670500 -1.131470 -85.706600 -11.754300 -0.000006 -0.000006 -0.761833 -0.897042 -21.578900
0.000000 0.000000 0.000000 0.000000 0.000000 -0.000000 4.556280 85.749100 -59.871100 90.921700 -6.711650 -2.803560 15.735700 0.000005 -0.000001 103.140000 82.737300 -102.356000 8.984550 -0.406207 -0.000000 6.365000 3.282880 1.385780 16.377300 -0.000001 -0.000001 -0.625689 -0.840832 0.073711 6.456720 -0.000001 -0.000000 0.543146 -2.235260 -2.485210 12.994200 -0.242716 4.980390 -88.893800 -2.696600 -67.692300 5.348090 -0.000007 -0.000001 -70.075000 36.282400 8.902950 24.328600 0.000019 0.000005 -1.006960 -0.148783 -81.508700 22.291600 -0.000001 0.000005 -0.890757 5.654320 -15.409300 12.994500 -0.242716 -4.980390 88.566600 4.015810 -70.340400 -5.348130 -0.000001 -0.000004 -53.869500 32.101300 -35.453200 -24.328900 0.000322 -0.000009 -2.131650 0.458558 -102.082000 -22.291500 -0.000108 -0.000004 11.753500 5.594840 -11.038900 -2.192480 -6.469440 -0.000000 175.486000 -4.117450 -36.503200 39.081100 -0.000007 -0.000012 -0.448105 -0.097915 102.327000 40.985400 -0.000006 -0.000013 13.230900 -11.907200 -53.190700 11.754300 -0.000000 0.000003 -0.007351 -0.082659 -19.942100 -2.192510 6.469440 -0.000001 -176.928000 6.831190 173.647000 -39.081100 -0.002282 -0.040193 0.176864 -0.174264 44.890500 -40.985400 0.000008 0.000006 17.737500 3.072880 -80.324300 -11.754300 -0.000006 -0.000006 -0.044590 -0.277912 -28.003200
0.000000 0.000000 0.000000 0.000000 0.000000 -0.000000 4.822930 89.112300 -49.908800 93.143300 -8.375330 -3.823840 15.735700 0.000005 -0.000001 113.489000 82.949000 -113.912000 8.984550 -0.406207 -0.000000 5.208130 5.618170 -1.101440 16.377300 -0.000001 -0.000001 0.212183 -0.612785 0.266277 6.456720 -0.000001 -0.000000 1.233240 -4.280840 -0.822383 12.994200 -0.242716 4.980390 -88.294100 -3.808890 -65.855000 5.348090 -0.000007 -0.000001 -70.028600 37.366400 13.353200 24.328600 0.000019 0.000005 -2.144690 -0.157321 -85.802100 22.291600 -0.000001 0.000005 -2.028960 5.641120 -14.218400 12.994500 -0.242716 -4.980390 89.012000 2.849560 -70.867900 -5.348130 -0.000001 -0.000004 -54.093100 33.893200 -37.176800 -24.328900 0.000322 -0.000009 -2.997840 0.824014 -105.358000 -22.291500 -0.000108 -0.000004 11.821600 5.592050 -10.874600 -2.192480 -6.469440 -0.000000 172.643000 -3.012530 -38.149200 39.081100 -0.000007 -0.000012 -0.219663 0.013201 86.563000 40.985400 -0.000006 -0.000013 12.187500 -15.318500 -56.550800 11.754300 -0.000000 0.000003 -0.007488 -0.083813 -19.989300 -2.192510 6.469440 -0.000001 178.241000 7.029790 -178.662000 -39.081100 -0.002282 -0.040193 0.103858 -0.139382 35.811800 -40.985400 0.000008 0.000006 16.288500 9.216730 -65.463000 -11.754300 -0.000006 -0.000006 -0.173869 -0.599826 -42.102600
